<?xml version="1.0" standalone="no"?><!DOCTYPE svg PUBLIC "-//W3C//DTD SVG 1.1//EN" "http://www.w3.org/Graphics/SVG/1.1/DTD/svg11.dtd"><svg t="1617986040346" class="icon" viewBox="0 0 1024 1024" version="1.1" xmlns="http://www.w3.org/2000/svg" p-id="914" xmlns:xlink="http://www.w3.org/1999/xlink" width="200" height="200"><defs><style type="text/css"></style></defs><path d="M1023.910943 511.999898c5.11911 317.794367-194.116663 516.825376-511.91103 511.911029-317.794367 4.914346-516.825376-194.116663-511.91103-511.911029C-4.825463 194.20553 194.205546-4.825478 511.999913 0.088868c317.794367-4.914346 516.825376 194.116663 511.91103 511.91103z" fill="#686868" p-id="915"></path><path d="M1022.477592 566.671996C1006.915497 340.40732 852.318366 201.16752 614.382119 204.85328c-254.112635-4.095288-413.624112 155.416189-409.528824 409.528824-3.890524 237.936247 135.554041 392.533378 361.613952 408.095473 268.036615-16.381153 439.629192-187.97373 456.010345-455.805581z" fill="#636363" p-id="916"></path><path d="M1015.515602 629.944199C985.824762 491.523456 876.480566 407.160519 716.764325 409.617692c-190.635668-3.071466-310.218084 116.51095-307.146618 307.146618-2.457173 159.716241 81.905765 269.060437 220.121743 298.751277 211.112109-34.400421 351.375731-174.664043 385.776152-385.571388z" fill="#5E5E5E" p-id="917"></path><path d="M997.701098 705.707031C964.734028 646.734881 902.076118 613.153517 819.146531 614.382104c-127.1587-2.047644-206.812056 77.605712-204.764412 204.764412-1.433351 82.929587 32.352777 145.587497 91.120163 178.554567a431.233852 431.233852 0 0 0 292.198816-291.994052z" fill="#565656" p-id="918"></path><path d="M512.0054 512.020374m-265.996774 153.573309a307.146618 307.146618 0 1 0 531.993548-307.146618 307.146618 307.146618 0 1 0-531.993548 307.146618Z" fill="#C9C9C9" p-id="919"></path><path d="M871.361456 304.573548c-15.971624-27.438431-57.743564-54.876862-166.473467-30.919426A304.689445 304.689445 0 0 1 757.717207 327.711927a218.688392 218.688392 0 0 1 22.72885-1.433351c25.595551 0 36.448065 6.142932 38.49571 9.623927s0 34.80995-52.010161 91.120164a945.806819 945.806819 0 0 1-211.112109 159.716241 945.192526 945.192526 0 0 1-243.874414 102.382206c-75.353304 17.609739-102.382206 5.323875-105.044144 0s-1.433351-22.933614 23.752672-57.334035a305.098974 305.098974 0 0 1-20.476441-71.46278c-75.148539 81.905765-72.486602 132.073046-56.514978 159.511477 11.671571 20.476441 37.062359 40.952882 92.143986 40.952882a356.290077 356.290077 0 0 0 80.062885-10.647749 1007.440907 1007.440907 0 0 0 260.665096-109.548961 1008.0552 1008.0552 0 0 0 225.240853-170.978284c78.42477-85.796289 75.762832-136.987392 59.586444-165.040116z" fill="#FFFFFF" p-id="920"></path><path d="M610.901124 343.069258m-51.191103 0a51.191103 51.191103 0 1 0 102.382206 0 51.191103 51.191103 0 1 0-102.382206 0Z" fill="#FFFFFF" p-id="921"></path><path d="M482.923367 336.312032m-30.714662 0a30.714662 30.714662 0 1 0 61.429323 0 30.714662 30.714662 0 1 0-61.429323 0Z" fill="#FFFFFF" p-id="922"></path></svg>