<?xml version="1.0" standalone="no"?><!DOCTYPE svg PUBLIC "-//W3C//DTD SVG 1.1//EN" "http://www.w3.org/Graphics/SVG/1.1/DTD/svg11.dtd"><svg t="1617985862876" class="icon" viewBox="0 0 1024 1024" version="1.1" xmlns="http://www.w3.org/2000/svg" p-id="1202" xmlns:xlink="http://www.w3.org/1999/xlink" width="200" height="200"><defs><style type="text/css"></style></defs><path d="M792.432 23.176L759.2 3.816l-0.096 0.056c-6.816-4.48-15.888-5.48-23.96-0.824L180.544 322.56a87.616 87.616 0 0 0-43.92 75.92v493.064c0 9.064 5.112 16.304 12.112 20.056v0.08l35.84 20.616 0.176 0.104 0.408 0.24 0.024-0.056a22.624 22.624 0 0 0 22.352-0.216L762.128 612.96a87.616 87.616 0 0 0 43.92-75.92V43.872c0-9.68-5.864-17.216-13.616-20.688z" fill="#8392A5" p-id="1203"></path><path d="M688.504 853.752L599.12 802.24V530.464L365.392 661.296l-26.88-9.216v285.24a25.44 25.44 0 0 0 13.12 22.24l9.264 5.136 82.448 47.512a73.408 73.408 0 0 0 73.512-0.136l171.704-99.792c7.264-4.216 10.256-11.952 9.304-19.232l0.32-0.184v-22.408a19.136 19.136 0 0 0-9.68-16.704z" fill="#8392A5" p-id="1204"></path><path d="M599.12 530.464v271.784l89.376 51.504c12.88 7.416 12.92 25.96 0.064 33.432l-171.704 99.792a73.4 73.4 0 0 1-73.52 0.136l-82.44-47.512V663.808l238.232-133.344z" fill="#C8CED6" p-id="1205"></path><path d="M516.856 986.976l171.704-99.792c12.856-7.472 12.824-26.008-0.056-33.44l-89.376-51.496-238.232 137.36 82.448 47.504a73.408 73.408 0 0 0 73.512-0.136zM173.216 912.592V419.528c0-31.312 16.744-60.248 43.92-75.912l554.6-319.52c15.248-8.792 34.32 2.192 34.32 19.768V537.04c0 31.32-16.752 60.264-43.936 75.92L207.544 932.368c-15.256 8.784-34.32-2.2-34.32-19.776z" fill="#E8EDEF" p-id="1206"></path><path d="M194.128 393.072v472.184l591.016-340.28V52.512z" fill="#33AEFF" p-id="1207"></path><path d="M684.016 110.784L469.6 706.656l291.416-167.784 24.136-67.072V52.52zM560.944 181.704L305.88 328.68 194.128 639.216v226.04l152.416-87.76z" fill="#FFFFFF" opacity=".2" p-id="1208"></path><path d="M293.568 576.224v59.024c0 35.264 38.256 57.28 68.832 39.624a100.36 100.36 0 0 0 50.216-86.896V507.08l-119.04 69.144zM531.8 438.136v59.04c0 35.248 38.256 57.272 68.832 39.616a100.352 100.352 0 0 0 50.216-86.896V369l-119.048 69.136zM770.08 299.904v59.032c0 35.256 38.264 57.28 68.84 39.616 31.072-17.944 48.448-49.928 48.448-85.76V231.896l-117.28 68.008z" fill="#AE392E" p-id="1209"></path><path d="M887.28 231.952L787.936 48.4 194.128 393.016v125.44l99.432 57.744 0.008 0.016v59.04c0 35.248 38.256 57.272 68.832 39.616a100.36 100.36 0 0 0 50.216-86.896V507.232l119.184-69.064v59c0 35.256 38.256 57.28 68.832 39.616a100.352 100.352 0 0 0 50.216-86.896V369.184L770.08 300.08v58.856c0 35.256 38.264 57.28 68.84 39.616 31.072-17.944 48.448-49.936 48.448-85.76V231.88l-0.088 0.064z" fill="#F43834" p-id="1210"></path><path d="M293.568 576.224l-99.44-57.76V393.008zM293.568 576.224v59.024c0 35.264 38.256 57.28 68.832 39.624a100.36 100.36 0 0 0 50.216-86.896V507.08l-119.04 69.144zM531.8 438.136v59.04c0 35.248 38.256 57.272 68.832 39.616a100.352 100.352 0 0 0 50.216-86.896V369l-119.048 69.136zM770.08 299.904v59.032c0 35.256 38.264 57.28 68.84 39.616 31.072-17.944 48.448-49.928 48.448-85.76V231.896l-117.28 68.008z" fill="#C40041" p-id="1211"></path><path d="M430.464 255.616l-119.04 69.136 101.392 182.352v59.032c0 35.256 38.256 57.28 68.832 39.624a100.352 100.352 0 0 0 50.208-86.896V437.968l-0.112 0.072-101.28-182.424zM770.08 299.88L668.696 117.528l-118.984 68.968L651.04 369.024v59.024c0 35.264 38.256 57.28 68.832 39.624a100.36 100.36 0 0 0 50.208-86.896V299.88z" fill="#E3E3E3" p-id="1212"></path><path d="M412.808 507.104v59.032c0 35.256 38.256 57.28 68.84 39.624a100.352 100.352 0 0 0 50.208-86.896V437.968l-119.04 69.136zM651.04 369.024v59.024c0 35.264 38.256 57.28 68.832 39.624a100.36 100.36 0 0 0 50.208-86.896V299.88l-119.04 69.144zM549.992 697.328c0 13.328-8.12 28.808-18.136 34.584-10.016 5.768-18.136-0.36-18.136-13.68 0-13.336 8.12-28.816 18.136-34.584 10.016-5.776 18.136 0.352 18.136 13.68z" fill="#C8CED6" p-id="1213"></path></svg>